{
	"asset":{
		"generator":"Khronos glTF Blender I/O v4.3.47",
		"version":"2.0"
	},
	"scene":0,
	"scenes":[
		{
			"name":"Scene",
			"nodes":[
				4
			]
		}
	],
	"nodes":[
		{
			"mesh":0,
			"name":"Cube",
			"rotation":[
				0.7088791728019714,
				0,
				0,
				0.705329954624176
			],
			"translation":[
				0,
				0.9040494561195374,
				0.004537779837846756
			]
		},
		{
			"name":"Bone.002",
			"rotation":[
				-0.033154889941215515,
				1.1328586424497189e-07,
				-3.7110190476141725e-08,
				0.9994502067565918
			],
			"scale":[
				1,
				0.9999998807907104,
				0.9999999403953552
			],
			"translation":[
				-7.940933880509066e-23,
				1.8523362874984741,
				-1.1175870895385742e-08
			]
		},
		{
			"children":[
				1
			],
			"name":"Bone.001",
			"rotation":[
				0.0013706434983760118,
				2.7917373283796367e-24,
				-6.281409481892248e-24,
				0.9999990463256836
			],
			"scale":[
				1,
				0.9999999403953552,
				0.9999999403953552
			],
			"translation":[
				1.3234889800848443e-23,
				1.8310126066207886,
				2.421438694000244e-08
			]
		},
		{
			"children":[
				2
			],
			"name":"Bone",
			"rotation":[
				0.7053816914558411,
				1.5644563539910959e-16,
				6.070530656992176e-19,
				0.7088277339935303
			]
		},
		{
			"children":[
				0,
				3
			],
			"name":"Armature",
			"rotation":[
				-0.7088791728019714,
				0,
				0,
				0.705329954624176
			],
			"translation":[
				0,
				0,
				0.9040608406066895
			]
		}
	],
	"animations":[
		{
			"channels":[
				{
					"sampler":0,
					"target":{
						"node":3,
						"path":"translation"
					}
				},
				{
					"sampler":1,
					"target":{
						"node":3,
						"path":"rotation"
					}
				},
				{
					"sampler":2,
					"target":{
						"node":3,
						"path":"scale"
					}
				},
				{
					"sampler":3,
					"target":{
						"node":2,
						"path":"translation"
					}
				},
				{
					"sampler":4,
					"target":{
						"node":2,
						"path":"rotation"
					}
				},
				{
					"sampler":5,
					"target":{
						"node":2,
						"path":"scale"
					}
				},
				{
					"sampler":6,
					"target":{
						"node":1,
						"path":"translation"
					}
				},
				{
					"sampler":7,
					"target":{
						"node":1,
						"path":"rotation"
					}
				},
				{
					"sampler":8,
					"target":{
						"node":1,
						"path":"scale"
					}
				}
			],
			"name":"Armature",
			"samplers":[
				{
					"input":5,
					"interpolation":"STEP",
					"output":6
				},
				{
					"input":7,
					"interpolation":"LINEAR",
					"output":8
				},
				{
					"input":5,
					"interpolation":"STEP",
					"output":9
				},
				{
					"input":5,
					"interpolation":"STEP",
					"output":10
				},
				{
					"input":5,
					"interpolation":"STEP",
					"output":11
				},
				{
					"input":5,
					"interpolation":"STEP",
					"output":12
				},
				{
					"input":5,
					"interpolation":"STEP",
					"output":13
				},
				{
					"input":5,
					"interpolation":"STEP",
					"output":14
				},
				{
					"input":5,
					"interpolation":"STEP",
					"output":15
				}
			]
		}
	],
	"materials":[
		{
			"doubleSided":true,
			"name":"Material",
			"pbrMetallicRoughness":{
				"baseColorFactor":[
					0.800000011920929,
					0.800000011920929,
					0.800000011920929,
					1
				],
				"metallicFactor":0,
				"roughnessFactor":0.5
			}
		}
	],
	"meshes":[
		{
			"name":"Cube",
			"primitives":[
				{
					"attributes":{
						"POSITION":0,
						"NORMAL":1,
						"TEXCOORD_0":2,
						"TANGENT":3
					},
					"indices":4,
					"material":0
				}
			]
		}
	],
	"accessors":[
		{
			"bufferView":0,
			"componentType":5126,
			"count":82,
			"max":[
				1,
				1,
				1
			],
			"min":[
				-1,
				-1,
				-4.768195152282715
			],
			"type":"VEC3"
		},
		{
			"bufferView":1,
			"componentType":5126,
			"count":82,
			"type":"VEC3"
		},
		{
			"bufferView":2,
			"componentType":5126,
			"count":82,
			"type":"VEC2"
		},
		{
			"bufferView":3,
			"componentType":5126,
			"count":82,
			"type":"VEC4"
		},
		{
			"bufferView":4,
			"componentType":5123,
			"count":240,
			"type":"SCALAR"
		},
		{
			"bufferView":5,
			"componentType":5126,
			"count":2,
			"max":[
				1.6666666666666667
			],
			"min":[
				0
			],
			"type":"SCALAR"
		},
		{
			"bufferView":6,
			"componentType":5126,
			"count":2,
			"type":"VEC3"
		},
		{
			"bufferView":7,
			"componentType":5126,
			"count":41,
			"max":[
				1.6666666666666667
			],
			"min":[
				0
			],
			"type":"SCALAR"
		},
		{
			"bufferView":8,
			"componentType":5126,
			"count":41,
			"type":"VEC4"
		},
		{
			"bufferView":9,
			"componentType":5126,
			"count":2,
			"type":"VEC3"
		},
		{
			"bufferView":10,
			"componentType":5126,
			"count":2,
			"type":"VEC3"
		},
		{
			"bufferView":11,
			"componentType":5126,
			"count":2,
			"type":"VEC4"
		},
		{
			"bufferView":12,
			"componentType":5126,
			"count":2,
			"type":"VEC3"
		},
		{
			"bufferView":13,
			"componentType":5126,
			"count":2,
			"type":"VEC3"
		},
		{
			"bufferView":14,
			"componentType":5126,
			"count":2,
			"type":"VEC4"
		},
		{
			"bufferView":15,
			"componentType":5126,
			"count":2,
			"type":"VEC3"
		}
	],
	"bufferViews":[
		{
			"buffer":0,
			"byteLength":984,
			"byteOffset":0,
			"target":34962
		},
		{
			"buffer":0,
			"byteLength":984,
			"byteOffset":984,
			"target":34962
		},
		{
			"buffer":0,
			"byteLength":656,
			"byteOffset":1968,
			"target":34962
		},
		{
			"buffer":0,
			"byteLength":1312,
			"byteOffset":2624,
			"target":34962
		},
		{
			"buffer":0,
			"byteLength":480,
			"byteOffset":3936,
			"target":34963
		},
		{
			"buffer":0,
			"byteLength":8,
			"byteOffset":4416
		},
		{
			"buffer":0,
			"byteLength":24,
			"byteOffset":4424
		},
		{
			"buffer":0,
			"byteLength":164,
			"byteOffset":4448
		},
		{
			"buffer":0,
			"byteLength":656,
			"byteOffset":4612
		},
		{
			"buffer":0,
			"byteLength":24,
			"byteOffset":5268
		},
		{
			"buffer":0,
			"byteLength":24,
			"byteOffset":5292
		},
		{
			"buffer":0,
			"byteLength":32,
			"byteOffset":5316
		},
		{
			"buffer":0,
			"byteLength":24,
			"byteOffset":5348
		},
		{
			"buffer":0,
			"byteLength":24,
			"byteOffset":5372
		},
		{
			"buffer":0,
			"byteLength":32,
			"byteOffset":5396
		},
		{
			"buffer":0,
			"byteLength":24,
			"byteOffset":5428
		}
	],
	"buffers":[
		{
			"byteLength":5452,
			"uri":"box_bone_animation.bin"
		}
	]
}
