{
	"asset":{
		"generator":"Khronos glTF Blender I/O v4.3.47",
		"version":"2.0"
	},
	"extensionsUsed":[
		"KHR_materials_specular",
		"KHR_materials_ior"
	],
	"scene":0,
	"scenes":[
		{
			"name":"Scene",
			"nodes":[
				0
			]
		}
	],
	"nodes":[
		{
			"mesh":0,
			"name":"backpack",
			"rotation":[
				0.7071068286895752,
				0,
				0,
				0.7071068286895752
			]
		}
	],
	"materials":[
		{
			"doubleSided":true,
			"extensions":{
				"KHR_materials_specular":{
					"specularTexture":{
						"index":0
					}
				},
				"KHR_materials_ior":{
					"ior":1.4500000476837158
				}
			},
			"name":"Scene_-_Root",
			"normalTexture":{
				"index":1,
				"scale":0
			},
			"pbrMetallicRoughness":{
				"baseColorTexture":{
					"index":2
				},
				"metallicFactor":0,
				"roughnessFactor":0.525658369064331
			}
		}
	],
	"meshes":[
		{
			"name":"BezierCurve.003__0",
			"primitives":[
				{
					"attributes":{
						"POSITION":0,
						"NORMAL":1,
						"TEXCOORD_0":2,
						"TANGENT":3
					},
					"indices":4,
					"material":0
				}
			]
		}
	],
	"textures":[
		{
			"sampler":0,
			"source":0
		},
		{
			"sampler":0,
			"source":1
		},
		{
			"sampler":0,
			"source":2
		}
	],
	"images":[
		{
			"mimeType":"image/png",
			"name":"specular",
			"uri":"specular.png"
		},
		{
			"mimeType":"image/png",
			"name":"normal",
			"uri":"normal.png"
		},
		{
			"mimeType":"image/png",
			"name":"diffuse",
			"uri":"diffuse.png"
		}
	],
	"accessors":[
		{
			"bufferView":0,
			"componentType":5126,
			"count":47689,
			"max":[
				1.8186949491500854,
				0.7912449836730957,
				1.7410180568695068
			],
			"min":[
				-1.916571021080017,
				-2.6774990558624268,
				-2.884799003601074
			],
			"type":"VEC3"
		},
		{
			"bufferView":1,
			"componentType":5126,
			"count":47689,
			"type":"VEC3"
		},
		{
			"bufferView":2,
			"componentType":5126,
			"count":47689,
			"type":"VEC2"
		},
		{
			"bufferView":3,
			"componentType":5126,
			"count":47689,
			"type":"VEC4"
		},
		{
			"bufferView":4,
			"componentType":5123,
			"count":203721,
			"type":"SCALAR"
		}
	],
	"bufferViews":[
		{
			"buffer":0,
			"byteLength":572268,
			"byteOffset":0,
			"target":34962
		},
		{
			"buffer":0,
			"byteLength":572268,
			"byteOffset":572268,
			"target":34962
		},
		{
			"buffer":0,
			"byteLength":381512,
			"byteOffset":1144536,
			"target":34962
		},
		{
			"buffer":0,
			"byteLength":763024,
			"byteOffset":1526048,
			"target":34962
		},
		{
			"buffer":0,
			"byteLength":407442,
			"byteOffset":2289072,
			"target":34963
		}
	],
	"samplers":[
		{
			"magFilter":9729,
			"minFilter":9987
		}
	],
	"buffers":[
		{
			"byteLength":2696516,
			"uri":"backpack.bin"
		}
	]
}
